#N canvas 398 223 563 489 16;
#X obj 47 164 bng 20 250 50 0 empty empty empty 17 7 0 10 -262144 -1
-1;
#X floatatom 47 227 5 0 0 0 - - -;
#X msg 47 198 1;
#X text 92 205 peak;
#X msg 23 294 0;
#X text 20 272 mute;
#X obj 84 377 vline~;
#X obj 143 97 s \$0-atk;
#X obj 242 66 s \$0-dec;
#X obj 330 66 s \$0-sus;
#X obj 418 66 s \$0-rel;
#X obj 134 158 r \$0-atk;
#X obj 223 157 r \$0-dec;
#X obj 247 235 r \$0-sus;
#X obj 247 267 r \$0-rel;
#X obj 84 307 pack f f f f f f;
#X floatatom 143 259 5 0 0 0 - - -;
#X obj 143 230 +;
#X msg 84 342 \$1 \$2 \, \$4 \$3 \$2 \, 0 \$5 \$6;
#X obj 143 197 f;
#X obj 187 198 t b f;
#X obj 163 33 inlet;
#X obj 245 34 inlet;
#X obj 333 34 inlet;
#X obj 420 36 inlet;
#X obj 84 416 outlet~;
#X text 357 305 \$1: peak;
#X text 358 326 \$2: atk;
#X text 358 348 \$3: dec;
#X text 358 371 \$4: sus;
#X text 358 391 \$5: rel;
#X text 358 413 \$6: atk+dec;
#X obj 354 132 vsl 24 128 0 5 0 0 \$0-atk \$0-ratk empty 0 -9 0 10
-262130 -1 -1 4500 0;
#X obj 378 132 vsl 24 128 0 5 0 0 \$0-dec \$0-rdec empty 0 -9 0 10
-262130 -1 -1 10200 0;
#X obj 402 132 vsl 24 128 0 1 0 0 \$0-sus \$0-rsus empty 0 -9 0 10
-261234 -1 -1 11800 0;
#X obj 426 132 vsl 24 128 0 5 0 0 \$0-rel \$0-rrel empty 0 -9 0 10
-262130 -1 -1 900 0;
#X floatatom 454 132 5 0 0 0 - #0-atk -;
#X floatatom 454 155 5 0 0 0 - #0-dec -;
#X floatatom 454 178 5 0 0 0 - #0-sus -;
#X floatatom 454 201 5 0 0 0 - #0-rel -;
#X text 526 130 a;
#X text 526 155 d;
#X text 526 177 s;
#X text 526 201 r;
#X obj 65 66 route bang float;
#X connect 0 0 2 0;
#X connect 1 0 15 0;
#X connect 2 0 1 0;
#X connect 4 0 6 0;
#X connect 6 0 25 0;
#X connect 11 0 15 1;
#X connect 11 0 19 0;
#X connect 12 0 15 2;
#X connect 12 0 20 0;
#X connect 13 0 15 3;
#X connect 14 0 15 4;
#X connect 15 0 18 0;
#X connect 16 0 15 5;
#X connect 17 0 16 0;
#X connect 18 0 6 0;
#X connect 19 0 17 0;
#X connect 20 0 19 0;
#X connect 20 1 17 1;
#X connect 21 0 44 0;
#X connect 22 0 8 0;
#X connect 23 0 9 0;
#X connect 24 0 10 0;
#X connect 44 0 0 0;
#X connect 44 1 7 0;
#X coords 0 -1 1 1 156 137 1 354 128;
