#N canvas 273 236 563 489 16;
#X obj 47 164 bng 20 250 50 0 empty empty empty 17 7 0 10 -262144 -1
-1;
#X floatatom 47 227 5 0 0 0 - - -;
#X msg 47 198 1;
#X text 92 205 peak;
#X msg 23 294 0;
#X text 20 272 mute;
#X obj 84 377 vline~;
#X obj 134 158 r \$0-atk;
#X obj 223 157 r \$0-dec;
#X obj 247 235 r \$0-sus;
#X obj 247 267 r \$0-rel;
#X obj 84 307 pack f f f f f f;
#X floatatom 143 259 5 0 0 0 - - -;
#X obj 143 230 +;
#X msg 84 342 \$1 \$2 \, \$4 \$3 \$2 \, 0 \$5 \$6;
#X obj 143 197 f;
#X obj 187 198 t b f;
#X obj 84 416 outlet~;
#X text 357 305 \$1: peak;
#X text 358 326 \$2: atk;
#X text 358 348 \$3: dec;
#X text 358 371 \$4: sus;
#X text 358 391 \$5: rel;
#X text 358 413 \$6: atk+dec;
#X obj 354 130 vsl 24 128 0 5 0 0 \$0-atk empty empty 0 -9 0 10 -262130
-1 -1 11300 0;
#X obj 378 130 vsl 24 128 0 5 0 0 \$0-dec empty empty 0 -9 0 10 -262130
-1 -1 9000 0;
#X obj 402 130 vsl 24 128 0 1 0 0 \$0-sus empty empty 0 -9 0 10 -261234
-1 -1 10300 0;
#X obj 426 130 vsl 24 128 0 5 0 0 \$0-rel empty empty 0 -9 0 10 -262130
-1 -1 9100 0;
#X obj 86 79 route bang float;
#X obj 86 49 inlet;
#X obj 297 52 inlet;
#X obj 356 52 inlet;
#X obj 415 52 inlet;
#X connect 0 0 2 0;
#X connect 1 0 11 0;
#X connect 2 0 1 0;
#X connect 4 0 6 0;
#X connect 6 0 17 0;
#X connect 7 0 11 1;
#X connect 7 0 15 0;
#X connect 8 0 11 2;
#X connect 8 0 16 0;
#X connect 9 0 11 3;
#X connect 10 0 11 4;
#X connect 11 0 14 0;
#X connect 12 0 11 5;
#X connect 13 0 12 0;
#X connect 14 0 6 0;
#X connect 15 0 13 0;
#X connect 16 0 15 0;
#X connect 16 1 13 1;
#X connect 28 0 0 0;
#X connect 28 1 24 0;
#X connect 29 0 28 0;
#X connect 30 0 25 0;
#X connect 31 0 26 0;
#X connect 32 0 27 0;
#X coords 0 -1 1 1 96 135 1 354 128;
