#N canvas 402 205 850 580 16;
#X obj 82 195 bng 20 250 50 0 empty empty empty 17 7 0 10 -262144 -1
-1;
#X floatatom 122 256 5 0 0 0 - - -;
#X msg 122 227 1;
#X text 167 234 peak;
#X floatatom 109 116 5 0 0 0 - - -;
#X msg 98 323 0;
#X text 118 92 atk;
#X text 95 301 mute;
#X obj 159 406 vline~;
#X floatatom 212 119 5 0 0 0 - - -;
#X text 218 95 dec;
#X floatatom 309 119 5 0 0 0 - - -;
#X text 315 95 sus;
#X floatatom 401 119 5 0 0 0 - - -;
#X text 404 96 rel;
#X obj 109 142 s \$0-atk;
#X obj 212 144 s \$0-dec;
#X obj 309 144 s \$0-sus;
#X obj 401 145 s \$0-rel;
#X obj 209 187 r \$0-atk;
#X obj 298 186 r \$0-dec;
#X obj 322 264 r \$0-sus;
#X obj 322 296 r \$0-rel;
#X obj 159 336 pack f f f f f f;
#X floatatom 218 288 5 0 0 0 - - -;
#X obj 218 259 +;
#X msg 159 371 \$1 \$2 \, \$4 \$3 \$2 \, 0 \$5 \$6;
#X obj 218 226 f;
#X obj 262 227 t b f;
#X obj 109 57 inlet;
#X obj 212 60 inlet;
#X obj 309 60 inlet;
#X obj 401 58 inlet;
#X obj 159 445 outlet~;
#X obj 39 57 inlet;
#X text 432 334 \$1: peak;
#X text 433 355 \$2: atk;
#X text 433 377 \$3: dec;
#X text 433 400 \$4: sus;
#X text 433 420 \$5: rel;
#X text 433 442 \$6: atk+dec;
#X obj 573 131 vsl 15 128 0 5 0 0 empty empty empty 0 -9 0 10 -262144
-1 -1 0 0;
#X obj 592 131 vsl 15 128 0 5 0 0 empty empty empty 0 -9 0 10 -262144
-1 -1 1000 0;
#X obj 611 131 vsl 15 128 0 1 0 0 empty empty empty 0 -9 0 10 -262144
-1 -1 7100 0;
#X obj 630 131 vsl 15 128 0 5 0 0 empty empty empty 0 -9 0 10 -262144
-1 -1 700 0;
#X connect 0 0 2 0;
#X connect 1 0 23 0;
#X connect 2 0 1 0;
#X connect 4 0 15 0;
#X connect 5 0 8 0;
#X connect 8 0 33 0;
#X connect 9 0 16 0;
#X connect 11 0 17 0;
#X connect 13 0 18 0;
#X connect 19 0 23 1;
#X connect 19 0 27 0;
#X connect 20 0 23 2;
#X connect 20 0 28 0;
#X connect 21 0 23 3;
#X connect 22 0 23 4;
#X connect 23 0 26 0;
#X connect 24 0 23 5;
#X connect 25 0 24 0;
#X connect 26 0 8 0;
#X connect 27 0 25 0;
#X connect 28 0 27 0;
#X connect 28 1 25 1;
#X connect 29 0 4 0;
#X connect 30 0 9 0;
#X connect 31 0 11 0;
#X connect 32 0 13 0;
#X connect 34 0 0 0;
